<svg width="129" height="179" viewBox="0 0 129 179" fill="none" xmlns="http://www.w3.org/2000/svg">
<path d="M24.8754 38.376C24.9133 39.7294 25.4869 41.0122 26.4706 41.9436C27.4543 42.875 28.7677 43.3789 30.1234 43.3451C35.5525 43.2011 40.8152 45.2163 44.7539 48.9473C48.6926 52.6783 50.9846 57.8196 51.1257 63.2401C51.2667 68.6606 49.2453 73.9162 45.5061 77.8509C41.7669 81.7856 36.6162 84.077 31.1871 84.221C30.5155 84.2389 29.8539 84.3888 29.2402 84.662C28.6265 84.9352 28.0726 85.3263 27.6102 85.8132C26.6763 86.7964 26.1716 88.1095 26.2071 89.4636C26.2426 90.8178 26.8155 92.1021 27.7997 93.034C28.7839 93.9658 30.0988 94.469 31.4551 94.4327C39.5951 94.2164 47.3175 90.7806 52.9235 84.881C58.5296 78.9814 61.56 71.1013 61.3482 62.9743C61.1363 54.8473 57.6996 47.139 51.794 41.5453C45.8884 35.9515 37.9977 32.9304 29.8577 33.1467C28.503 33.1812 27.2171 33.7515 26.2828 34.7321C25.3485 35.7127 24.8423 37.0234 24.8754 38.376Z" fill="#CDEDD6" stroke="black" stroke-width="2" stroke-linecap="round" stroke-linejoin="round"/>
<path d="M25.1992 48.5919C25.2144 49.2631 25.3625 49.9246 25.635 50.5383C25.9075 51.152 26.2989 51.7057 26.7867 52.1676C27.2745 52.6294 27.849 52.9903 28.4773 53.2295C29.1055 53.4686 29.775 53.5812 30.4472 53.5609C33.1669 53.4871 35.8039 54.4949 37.7782 56.3628C39.7524 58.2306 40.9022 60.8055 40.9746 63.5208C41.0469 66.2362 40.036 68.8697 38.164 70.8419C36.2921 72.8142 33.7125 73.9637 30.9928 74.0375C30.3211 74.0546 29.6592 74.2036 29.045 74.4761C28.4308 74.7485 27.8763 75.139 27.4132 75.6254C26.95 76.1117 26.5873 76.6843 26.3457 77.3104C26.104 77.9366 25.9883 78.6041 26.005 79.2747C26.0218 79.9454 26.1706 80.6061 26.4431 81.2192C26.7157 81.8323 27.1065 82.3857 27.5933 82.8478C28.0801 83.31 28.6534 83.6718 29.2804 83.9127C29.9074 84.1535 30.5758 84.2687 31.2476 84.2516C36.6221 84.0323 41.6955 81.71 45.3709 77.7869C49.0464 73.8637 51.0287 68.6548 50.8893 63.2863C50.7499 57.9178 48.4999 52.821 44.6258 49.0977C40.7517 45.3743 35.5648 43.3237 30.1863 43.389C28.8366 43.4259 27.5557 43.9931 26.6218 44.9673C25.688 45.9415 25.1768 47.244 25.1992 48.5919Z" fill="#CDEDD6" stroke="black" stroke-width="2" stroke-linecap="round" stroke-linejoin="round"/>
<path d="M24.6095 28.1781C24.651 29.5303 25.2257 30.811 26.2086 31.7417C27.1914 32.6723 28.5029 33.1774 29.8575 33.1472C37.9975 32.9309 45.8882 35.952 51.7938 41.5457C57.6994 47.1395 61.1362 54.8478 61.348 62.9748C61.5598 71.1018 58.5294 78.9819 52.9234 84.8815C47.3173 90.7811 39.5949 94.2169 31.4549 94.4332C30.1258 94.5108 28.8788 95.1017 27.9779 96.0809C27.0769 97.0601 26.5928 98.3506 26.6279 99.6794C26.6631 101.008 27.2148 102.271 28.1662 103.2C29.1176 104.129 30.3941 104.652 31.7254 104.658C37.1515 104.592 42.511 103.45 47.4923 101.298C52.4736 99.1463 56.9774 96.0274 60.7419 92.123C64.5063 88.2186 67.4564 83.6065 69.4205 78.5547C71.3846 73.503 72.3236 68.1125 72.1829 62.6965C72.0423 57.2804 70.8247 51.947 68.6011 47.0061C66.3774 42.0653 63.192 37.6156 59.2301 33.9157C55.2681 30.2158 50.6086 27.3396 45.5224 25.4542C40.4363 23.5688 35.0249 22.7118 29.6028 22.9331C28.2445 22.9683 26.9555 23.5406 26.0192 24.5241C25.0829 25.5077 24.5758 26.822 24.6095 28.1781Z" fill="#CDEDD6" stroke="black" stroke-width="2" stroke-linecap="round" stroke-linejoin="round"/>
<path d="M24.3428 17.8973C24.3773 19.2534 24.9497 20.54 25.9343 21.4743C26.9188 22.4085 28.2349 22.914 29.5932 22.8796C40.3502 22.7489 50.7241 26.8502 58.4723 34.2968C66.2204 41.7434 70.7204 51.9371 70.9992 62.6741C71.2781 73.4111 67.3135 83.8288 59.9625 91.6752C52.6115 99.5215 42.4648 104.166 31.7158 104.605C31.0442 104.623 30.3827 104.773 29.769 105.046C29.1552 105.319 28.6013 105.71 28.1389 106.197C27.205 107.18 26.7003 108.493 26.7358 109.847C26.7714 111.202 27.3443 112.486 28.3285 113.418C29.3127 114.35 30.6275 114.853 31.9838 114.816C43.7889 114.501 55.1239 110.12 64.0675 102.415C73.0111 94.7109 79.0129 84.1571 81.0556 72.5431C83.0983 60.9291 81.0561 48.9696 75.2752 38.6918C69.4944 28.414 60.3305 20.4503 49.3371 16.1507C42.9705 13.6676 36.1657 12.4964 29.3323 12.7077C27.9845 12.744 26.705 13.309 25.7711 14.2804C24.8371 15.2518 24.3239 16.5513 24.3428 17.8973Z" fill="#CDEDD6" stroke="black" stroke-width="2" stroke-linecap="round" stroke-linejoin="round"/>
<path d="M81.3526 151.24C80.8453 150.8 80.4299 150.265 80.1302 149.664C79.8305 149.064 79.6525 148.41 79.6062 147.74C79.56 147.071 79.6465 146.399 79.8607 145.763C80.0749 145.126 80.4128 144.538 80.8548 144.033C84.4188 139.936 86.208 134.595 85.8286 129.185C85.4493 123.774 82.9325 118.736 78.832 115.18C74.7315 111.624 69.3831 109.841 63.9634 110.223C58.5438 110.605 53.4968 113.12 49.9328 117.216C49.5006 117.753 48.9646 118.197 48.3566 118.522C47.7486 118.848 47.0813 119.047 46.3945 119.108C45.7077 119.17 45.0156 119.093 44.3597 118.881C43.7037 118.669 43.0974 118.327 42.577 117.876C42.0566 117.425 41.6328 116.873 41.331 116.254C41.0293 115.636 40.8557 114.962 40.8207 114.275C40.7857 113.587 40.89 112.9 41.1274 112.253C41.3648 111.607 41.7304 111.015 42.2022 110.512C44.8307 107.409 48.0504 104.858 51.6742 103.007C55.298 101.157 59.2536 100.043 63.3112 99.732C67.3689 99.4208 71.4475 99.9177 75.3101 101.194C79.1728 102.47 82.7424 104.501 85.8115 107.167C88.8806 109.833 91.3879 113.082 93.1879 116.725C94.9879 120.368 96.0445 124.332 96.2964 128.387C96.5483 132.442 95.9904 136.507 94.6552 140.346C93.32 144.185 91.2341 147.721 88.5187 150.749C87.6285 151.755 86.3772 152.371 85.0359 152.463C83.6946 152.555 82.3713 152.116 81.3526 151.24Z" fill="#CDEDD6" stroke="black" stroke-width="2" stroke-linecap="round" stroke-linejoin="round"/>
<path d="M73.6356 144.533C73.1283 144.093 72.7129 143.558 72.4132 142.957C72.1136 142.357 71.9355 141.703 71.8893 141.033C71.843 140.364 71.9295 139.692 72.1437 139.055C72.358 138.419 72.6958 137.831 73.1378 137.325C74.851 135.272 75.6909 132.63 75.4777 129.967C75.2645 127.304 74.015 124.83 71.997 123.077C69.9789 121.323 67.3528 120.428 64.6811 120.585C62.0095 120.741 59.5047 121.936 57.7034 123.913C57.2621 124.419 56.7252 124.833 56.1236 125.132C55.5219 125.432 54.8672 125.609 54.1968 125.656C53.5265 125.703 52.8535 125.617 52.2165 125.404C51.5795 125.191 50.9908 124.854 50.4841 124.414C49.9773 123.974 49.5625 123.438 49.2633 122.837C48.964 122.237 48.7862 121.583 48.74 120.914C48.6937 120.245 48.78 119.573 48.9938 118.937C49.2077 118.3 49.5449 117.712 49.9862 117.206C53.5503 113.11 58.5972 110.594 64.0169 110.212C69.4366 109.83 74.7849 111.614 78.8855 115.17C82.986 118.726 85.5027 123.763 85.8821 129.174C86.2614 134.585 84.4723 139.926 80.9082 144.022C80.4673 144.538 79.9282 144.96 79.3221 145.265C78.716 145.571 78.0553 145.752 77.3783 145.8C76.7013 145.847 76.0217 145.76 75.3792 145.542C74.7366 145.325 74.1439 144.982 73.6356 144.533Z" fill="#CDEDD6" stroke="black" stroke-width="2" stroke-linecap="round" stroke-linejoin="round"/>
<path d="M89.0697 157.946C88.0482 157.055 87.4222 155.797 87.3289 154.446C87.2356 153.095 87.6825 151.761 88.5718 150.738C93.7838 144.585 96.3618 136.632 95.7482 128.599C95.1347 120.566 91.379 113.099 85.2933 107.812C79.2076 102.525 71.2808 99.8435 63.2271 100.347C55.1733 100.85 47.6397 104.498 42.2554 110.502C41.8371 111.069 41.3061 111.543 40.6957 111.895C40.0852 112.247 39.4085 112.469 38.7081 112.548C38.0077 112.626 37.2986 112.559 36.6256 112.351C35.9525 112.143 35.3299 111.798 34.7969 111.338C34.2639 110.877 33.832 110.312 33.5284 109.677C33.2248 109.043 33.056 108.352 33.0326 107.649C33.0092 106.945 33.1317 106.245 33.3924 105.591C33.6532 104.937 34.0465 104.344 34.5477 103.849C38.9898 98.7646 44.621 94.8546 50.9404 92.4669C57.2598 90.0792 64.0715 89.2878 70.7694 90.163C77.4672 91.0382 83.8436 93.5529 89.3312 97.4834C94.8188 101.414 99.2474 106.638 102.223 112.692C105.757 119.911 107.082 128.011 106.03 135.979C104.979 143.948 101.599 151.432 96.3119 157.495C95.8661 158 95.3251 158.413 94.7196 158.709C94.1142 159.005 93.4562 159.179 92.7835 159.221C92.1108 159.262 91.4365 159.171 90.7992 158.953C90.162 158.734 89.5742 158.392 89.0697 157.946Z" fill="#CDEDD6" stroke="black" stroke-width="2" stroke-linecap="round" stroke-linejoin="round"/>
<path d="M96.8004 164.65C96.293 164.21 95.8776 163.675 95.578 163.074C95.2783 162.474 95.1002 161.82 95.054 161.15C95.0077 160.481 95.0942 159.809 95.3085 159.173C95.5227 158.536 95.8605 157.948 96.3025 157.443C103.007 149.209 106.244 138.697 105.331 128.128C104.418 117.56 99.4258 107.762 91.409 100.804C83.3921 93.8469 72.9785 90.275 62.3683 90.8432C51.758 91.4113 41.7821 96.0751 34.5479 103.849C33.6566 104.871 32.3952 105.499 31.0413 105.593C29.6874 105.687 28.3519 105.24 27.3285 104.35C26.3052 103.461 25.6778 102.202 25.5844 100.85C25.4911 99.4987 25.9394 98.165 26.8307 97.1427C31.2163 91.9865 36.5828 87.7501 42.6191 84.6791C48.6555 81.608 55.2416 79.7634 61.9958 79.2522C68.75 78.7409 75.5378 79.5732 81.9659 81.7008C88.394 83.8283 94.3344 87.2088 99.4429 91.6464C104.551 96.0839 108.726 101.49 111.726 107.552C114.725 113.614 116.489 120.21 116.916 126.959C117.342 133.708 116.423 140.475 114.211 146.868C111.999 153.261 108.538 159.153 104.029 164.202C103.585 164.707 103.044 165.118 102.44 165.414C101.836 165.71 101.179 165.883 100.507 165.925C99.8355 165.967 99.1624 165.876 98.5263 165.657C97.8902 165.438 97.3036 165.096 96.8004 164.65Z" fill="#CDEDD6" stroke="black" stroke-width="2" stroke-linecap="round" stroke-linejoin="round"/>
<path d="M85.6685 54.1895C85.6685 54.1895 71.1444 72.0786 49.9194 75.5347C28.6945 78.9907 14.186 96.8907 14.186 96.8907L40.0926 140.148C40.0926 140.148 54.2243 122.522 75.2809 119.124C96.3376 115.725 111.573 97.434 111.573 97.434L85.6685 54.1895Z" fill="#CDEDD6" stroke="black" stroke-width="2" stroke-linecap="round" stroke-linejoin="round"/>
<path d="M86.7061 49.408C86.7061 49.408 72.1843 67.3103 50.9523 70.7265C29.7202 74.1427 15.2188 92.0826 15.2188 92.0826L41.1254 135.34C41.1254 135.34 55.2571 117.714 76.3138 114.315C97.3704 110.917 112.61 92.6524 112.61 92.6524L86.7061 49.408Z" fill="#CDEDD6" stroke="black" stroke-width="2" stroke-linecap="round" stroke-linejoin="round"/>
<path d="M87.69 44.636C87.69 44.636 73.2214 62.5288 51.9941 65.9715C30.7668 69.4143 16.2607 87.3276 16.2607 87.3276L42.1673 130.585C42.1673 130.585 56.3085 113.012 77.369 109.558C98.4294 106.104 113.647 87.8709 113.647 87.8709L87.69 44.636Z" fill="#CDEDD6" stroke="black" stroke-width="2" stroke-linecap="round" stroke-linejoin="round"/>
<path d="M88.7803 39.845C88.7803 39.845 74.2585 57.7474 53.0336 61.2034C31.8087 64.6595 17.2978 82.5462 17.2978 82.5462L43.1911 125.806C43.1911 125.806 57.3228 108.18 78.3794 104.781C99.4361 101.383 114.686 83.1716 114.686 83.1716L88.7803 39.845Z" fill="#CDEDD6" stroke="black" stroke-width="2" stroke-linecap="round" stroke-linejoin="round"/>
<path d="M93.2813 100.24L66.0823 108.911L39.1493 64.4525L66.3893 55.8559L93.2813 100.24Z" fill="#CDEDD6" stroke="black" stroke-width="2" stroke-linecap="round" stroke-linejoin="round"/>
<path d="M86.8011 116.862L62.2007 124.244L66.0826 108.911L93.2816 100.239L86.8011 116.862Z" fill="#CDEDD6" stroke="black" stroke-width="2" stroke-linecap="round" stroke-linejoin="round"/>
<path d="M60.4381 80.9806C60.1001 80.5905 59.8255 80.1499 59.6242 79.675C59.4314 79.2067 59.3401 78.7029 59.3563 78.1967C59.3725 77.6891 59.4964 77.1906 59.7199 76.7341L59.7199 76.7341L59.7219 76.73C60.3255 75.4831 61.3979 74.5239 62.7063 74.0617L62.7486 74.0468L62.7894 74.0281C63.9565 73.4939 65.2681 73.3641 66.5163 73.6585C67.1744 73.879 67.7734 74.2464 68.2679 74.7327C68.5421 75.0025 68.7801 75.3048 68.9771 75.632L67.5936 76.1762C67.2844 75.7502 66.92 75.3652 66.5091 75.0318L66.4636 74.995L66.4142 74.9636C65.8994 74.6376 65.3073 74.4538 64.6983 74.4309C64.112 74.4088 63.53 74.5366 63.0074 74.8016C62.6036 74.9596 62.2337 75.1938 61.9181 75.4917C61.5859 75.8053 61.3207 76.1829 61.1387 76.6019C60.9566 77.0208 60.8615 77.4723 60.8591 77.9291C60.8567 78.3859 60.9472 78.8383 61.125 79.2591L61.1285 79.2673L61.1321 79.2755C61.3444 79.754 61.6466 80.1871 62.0223 80.5516C62.3614 80.902 63.0115 81.5074 63.9642 82.3416L64.4273 82.747L64.5246 82.7077L64.8061 83.2074C64.8857 83.3487 64.9497 83.459 65.0045 83.5533C65.0794 83.6823 65.137 83.7814 65.1931 83.8889C65.2883 84.0713 65.3651 84.2276 65.4456 84.4058C65.668 84.9376 65.7225 85.5244 65.6021 86.0881C65.4748 86.5488 65.3245 87.0027 65.152 87.4481C65.2067 86.8336 65.1244 86.2093 64.9042 85.6217L64.8943 85.5954L64.883 85.5697C64.6764 85.1007 64.4016 84.6648 64.0675 84.2763C63.8113 83.9533 63.5347 83.647 63.2394 83.3592L62.7645 82.8964L62.6196 82.9574L61.8587 82.3409C61.3483 81.9274 60.8732 81.4724 60.4381 80.9806ZM64.8688 88.6288C64.8834 88.5925 64.8974 88.5561 64.9109 88.5196L66.3335 89.5538C66.6875 89.2206 67.0588 88.9062 67.4459 88.6119L67.4542 88.6056L67.4623 88.5991C67.7765 88.3498 68.1197 88.1394 68.4845 87.9725C68.6868 87.8854 68.8962 87.8162 69.1106 87.7657L69.112 87.7655L69.1137 87.7652L69.1154 87.7649L69.117 87.7646L69.1187 87.7643L69.1203 87.764L69.122 87.7637L69.1236 87.7634L69.1253 87.7631L69.127 87.7628L69.1286 87.7625L69.1303 87.7622L69.1319 87.7619L69.1336 87.7616L69.1353 87.7613L69.1369 87.761L69.1386 87.7607L69.1403 87.7604L69.1419 87.7601L69.1436 87.7598L69.1453 87.7595L69.1469 87.7592L69.1486 87.7589L69.1503 87.7586L69.1519 87.7583L69.1536 87.758L69.1553 87.7577L69.157 87.7574L69.1586 87.7571L69.1603 87.7568L69.162 87.7565L69.1637 87.7562L69.1654 87.7559L69.167 87.7556L69.1687 87.7553L69.1704 87.755L69.1721 87.7547L69.1738 87.7544L69.1755 87.7541L69.1771 87.7538L69.1788 87.7535L69.1805 87.7532L69.1822 87.7529L69.1839 87.7526L69.1856 87.7523L69.1873 87.752L69.189 87.7516L69.1906 87.7513L69.1923 87.751L69.194 87.7507L69.1957 87.7504L69.1974 87.7501L69.1991 87.7498L69.2008 87.7495L69.2025 87.7492L69.2042 87.7489L69.2059 87.7486L69.2076 87.7483L69.2093 87.748L69.211 87.7477L69.2127 87.7474L69.2144 87.7471L69.2161 87.7468L69.2178 87.7465L69.2195 87.7462L69.2212 87.7459L69.2229 87.7455L69.2246 87.7452L69.2263 87.7449L69.2281 87.7446L69.2298 87.7443L69.2315 87.744L69.2332 87.7437L69.2349 87.7434L69.2366 87.7431L69.2383 87.7428L69.24 87.7425L69.2418 87.7422L69.2435 87.7419L69.2452 87.7415L69.2469 87.7412L69.2486 87.7409L69.2503 87.7406L69.2521 87.7403L69.2538 87.74L69.2555 87.7397L69.2572 87.7394L69.2589 87.7391L69.2607 87.7388L69.2624 87.7385L69.2641 87.7381L69.2658 87.7378L69.2676 87.7375L69.2693 87.7372L69.271 87.7369L69.2727 87.7366L69.2745 87.7363L69.2762 87.736L69.2779 87.7357L69.2797 87.7354L69.2814 87.735L69.2831 87.7347L69.2849 87.7344L69.2866 87.7341L69.2883 87.7338L69.2901 87.7335L69.2918 87.7332L69.2935 87.7329L69.2953 87.7326L69.297 87.7322L69.2987 87.7319L69.3005 87.7316L69.3022 87.7313L69.304 87.731L69.3057 87.7307L69.3074 87.7304L69.3092 87.7301L69.3109 87.7297L69.3127 87.7294L69.3144 87.7291L69.3162 87.7288L69.3179 87.7285L69.3197 87.7282L69.3214 87.7279L69.3232 87.7275L69.3249 87.7272L69.3266 87.7269L69.3284 87.7266L69.3301 87.7263L69.3319 87.726L69.3337 87.7257L69.3354 87.7253L69.3372 87.725L69.3389 87.7247L69.3407 87.7244L69.3424 87.7241L69.3442 87.7238L69.3459 87.7234L69.3477 87.7231L69.3494 87.7228L69.3512 87.7225L69.353 87.7222L69.3547 87.7219L69.3565 87.7216L69.3582 87.7212L69.36 87.7209L69.3618 87.7206L69.3635 87.7203L69.3653 87.72L69.3671 87.7197L69.3688 87.7193L69.3706 87.719L69.3724 87.7187L69.3741 87.7184L69.3759 87.7181L69.3777 87.7178L69.3794 87.7174L69.3812 87.7171L69.383 87.7168L69.3847 87.7165L69.3865 87.7162L69.3883 87.7158L69.39 87.7155L69.3918 87.7152L69.3936 87.7149L69.3954 87.7146L69.3971 87.7143L69.3989 87.7139L69.4007 87.7136L69.4025 87.7133L69.4042 87.713L69.406 87.7127L69.4078 87.7123L69.4096 87.712L69.4114 87.7117L69.4131 87.7114L69.4149 87.7111L69.4167 87.7107L69.4185 87.7104L69.4203 87.7101L69.422 87.7098L69.4238 87.7095L69.4256 87.7091L69.4274 87.7088L69.4292 87.7085L69.431 87.7082L69.4327 87.7079L69.4345 87.7075L69.4363 87.7072L69.4381 87.7069L69.4399 87.7066L69.4417 87.7063L69.4435 87.7059L69.4453 87.7056L69.4471 87.7053L69.4488 87.705L69.4506 87.7046L69.4524 87.7043L69.4542 87.704L69.456 87.7037L69.4578 87.7034L69.4596 87.703L69.4614 87.7027L69.4632 87.7024L69.465 87.7021L69.4668 87.7017L69.4686 87.7014L69.4704 87.7011L69.4722 87.7008L69.474 87.7005L69.4758 87.7001L69.4776 87.6998L69.4794 87.6995L69.4812 87.6992L69.483 87.6988L69.4848 87.6985L69.4866 87.6982L69.4884 87.6979L69.4902 87.6975L69.492 87.6972L69.4938 87.6969L69.4956 87.6966L69.4974 87.6962L69.4992 87.6959L69.501 87.6956L69.5028 87.6953L69.5046 87.6949L69.5064 87.6946L69.5082 87.6943L69.51 87.694L69.5118 87.6936L69.5136 87.6933L69.5155 87.693L69.5173 87.6927L69.5191 87.6923L69.5209 87.692L69.5227 87.6917L69.5245 87.6914L69.5263 87.691L69.5281 87.6907L69.5299 87.6904L69.5318 87.6901L69.5336 87.6897L69.5354 87.6894L69.5372 87.6891L69.539 87.6888L69.5408 87.6884L69.5426 87.6881L69.5445 87.6878L69.5463 87.6875L69.5481 87.6871L69.5499 87.6868L69.5517 87.6865L69.5536 87.6862L69.5554 87.6858L69.5572 87.6855L69.559 87.6852L69.5608 87.6848L69.5627 87.6845L69.5645 87.6842L69.5663 87.6839L69.5681 87.6835L69.5699 87.6832L69.5718 87.6829L69.5736 87.6826L69.5754 87.6822L69.5772 87.6819L69.5791 87.6816L69.5809 87.6812L69.5827 87.6809L69.5845 87.6806L69.5864 87.6803L69.5882 87.6799L69.59 87.6796L69.5918 87.6793L69.5937 87.6789L69.5955 87.6786L69.5973 87.6783L69.5992 87.678L69.601 87.6776L69.6028 87.6773L69.6047 87.677L69.6065 87.6766L69.6083 87.6763L69.6101 87.676L69.612 87.6757L69.6138 87.6753L69.6156 87.675L69.6175 87.6747L69.6193 87.6743L69.6211 87.674L69.623 87.6737L69.6248 87.6734L69.6266 87.673L69.6285 87.6727L69.6303 87.6724L69.6322 87.672L69.634 87.6717L69.6358 87.6714L69.6377 87.671L69.6395 87.6707L69.6413 87.6704L69.6432 87.6701L69.645 87.6697L69.6469 87.6694L69.6487 87.6691L69.6505 87.6687L69.6524 87.6684L69.6542 87.6681L69.656 87.6677L69.6579 87.6674L69.6597 87.6671L69.6616 87.6668L69.6634 87.6664L69.6653 87.6661L69.6671 87.6658L69.6689 87.6654L69.6708 87.6651L69.6726 87.6648L69.6745 87.6644L69.6763 87.6641L69.6782 87.6638L69.68 87.6634L69.6818 87.6631L69.6837 87.6628L69.6855 87.6624L69.6874 87.6621L69.6892 87.6618L69.6911 87.6615L69.6929 87.6611L69.6948 87.6608L69.6966 87.6605L69.6985 87.6601L69.7003 87.6598L69.7022 87.6595L69.704 87.6591L69.7059 87.6588L69.7077 87.6585L69.7096 87.6581L69.7114 87.6578L69.7133 87.6575L69.7151 87.6571L69.717 87.6568L69.7188 87.6565L69.7207 87.6561L69.7225 87.6558L69.7244 87.6555L69.7262 87.6551L69.7281 87.6548L69.7299 87.6545L69.7318 87.6541L69.7336 87.6538L69.7355 87.6535L69.7373 87.6531L69.7392 87.6528L69.741 87.6525L69.7429 87.6521L69.7447 87.6518L69.7466 87.6515L69.7485 87.6511L69.7503 87.6508L69.7522 87.6505L69.754 87.6501L69.7559 87.6498L69.7577 87.6495L69.7596 87.6491L69.7614 87.6488L69.7633 87.6485L69.7652 87.6481L69.767 87.6478L69.7689 87.6475L69.7707 87.6471L69.7726 87.6468L69.7744 87.6465L69.7763 87.6461L69.7782 87.6458L69.78 87.6455L69.7819 87.6451L69.7837 87.6448L69.7856 87.6445L69.7875 87.6441L69.7893 87.6438L69.7912 87.6435L69.793 87.6431L69.7949 87.6428L69.7968 87.6425L69.7986 87.6421L69.8005 87.6418L69.8023 87.6415L69.8042 87.6411L69.8061 87.6408L69.8079 87.6405L69.8098 87.6401L69.8117 87.6398L69.8135 87.6395L69.8154 87.6391L69.8172 87.6388L69.8191 87.6385L69.821 87.6381L69.8228 87.6378L69.8247 87.6374L69.8266 87.6371L69.8284 87.6368L69.8303 87.6364L69.8321 87.6361L69.834 87.6358L69.8359 87.6354L69.8377 87.6351L69.8396 87.6348L69.8415 87.6344L69.8433 87.6341L69.8452 87.6338L69.8471 87.6334L69.8489 87.6331L69.8508 87.6328L69.8527 87.6324L69.8545 87.6321L69.8564 87.6318L69.8583 87.6314L69.8601 87.6311L69.862 87.6307L69.8639 87.6304L69.8657 87.6301L69.8676 87.6297L69.8695 87.6294L69.8713 87.6291L69.8732 87.6287L69.8751 87.6284L69.8769 87.6281L69.8788 87.6277L69.8807 87.6274L69.8825 87.6271L69.8844 87.6267L69.8863 87.6264L69.8881 87.6261L69.89 87.6257L69.8919 87.6254L69.8937 87.625L69.8956 87.6247L69.8975 87.6244L69.8994 87.624L69.9012 87.6237L69.9031 87.6234L69.905 87.623L69.9068 87.6227L69.9087 87.6224L69.9106 87.622L69.9124 87.6217L69.9143 87.6214L69.9162 87.621L69.918 87.6207L69.9199 87.6203L69.9218 87.62L69.9237 87.6197L69.9255 87.6193L69.9274 87.619L69.9293 87.6187L69.9311 87.6183L69.933 87.618L69.9349 87.6177L69.9367 87.6173L69.9386 87.617L69.9405 87.6166L69.9424 87.6163L69.9442 87.616L69.9461 87.6156L69.948 87.6153L69.9498 87.615L69.9517 87.6146L69.9536 87.6143L69.9555 87.614L69.9573 87.6136L69.9592 87.6133L69.9611 87.613L69.9629 87.6126L69.9648 87.6123L69.9667 87.6119L69.9686 87.6116L69.9704 87.6113L69.9723 87.6109L69.9742 87.6106L69.976 87.6103L69.9779 87.6099L69.9798 87.6096L69.9817 87.6093L69.9835 87.6089L69.9854 87.6086L69.9873 87.6082L69.9891 87.6079L69.991 87.6076L69.9929 87.6072L69.9948 87.6069L69.9966 87.6066L69.9985 87.6062L70.0004 87.6059L70.0022 87.6056L70.0041 87.6052L70.5365 87.5096L71.1088 87.4068L71.4815 87.3398L71.6075 87.3172L71.7238 87.2635C72.267 87.0128 72.7546 86.6561 73.158 86.2145C73.1983 86.171 73.2382 86.1272 73.2778 86.0832L73.9241 86.7665C73.7332 86.9803 73.5278 87.1813 73.3093 87.368L73.2964 87.379L73.2839 87.3905C72.8284 87.8072 72.3088 88.1482 71.7449 88.4003C71.4592 88.5177 71.1616 88.6038 70.8572 88.657L70.8527 88.6578L70.8504 88.6583L70.848 88.6587L70.8457 88.6591L70.8433 88.6595L70.841 88.66L70.8386 88.6604L70.8363 88.6608L70.834 88.6612L70.8316 88.6616L70.8293 88.6621L70.8269 88.6625L70.8246 88.6629L70.8222 88.6633L70.8199 88.6637L70.8175 88.6642L70.8151 88.6646L70.8128 88.665L70.8104 88.6654L70.8081 88.6659L70.8057 88.6663L70.8034 88.6667L70.801 88.6671L70.7986 88.6676L70.7963 88.668L70.7939 88.6684L70.7916 88.6688L70.7892 88.6693L70.7868 88.6697L70.7845 88.6701L70.7821 88.6705L70.7797 88.671L70.7774 88.6714L70.775 88.6718L70.7726 88.6722L70.7702 88.6727L70.7679 88.6731L70.7655 88.6735L70.7631 88.6739L70.7608 88.6744L70.7584 88.6748L70.756 88.6752L70.7536 88.6756L70.7512 88.6761L70.7489 88.6765L70.7465 88.6769L70.7441 88.6774L70.7417 88.6778L70.7393 88.6782L70.7369 88.6786L70.7346 88.6791L70.7322 88.6795L70.7298 88.6799L70.7274 88.6804L70.725 88.6808L70.7226 88.6812L70.7202 88.6816L70.7178 88.6821L70.7154 88.6825L70.713 88.6829L70.7107 88.6834L70.7083 88.6838L70.7059 88.6842L70.7035 88.6847L70.7011 88.6851L70.6987 88.6855L70.6963 88.686L70.6939 88.6864L70.6915 88.6868L70.6891 88.6872L70.6867 88.6877L70.6842 88.6881L70.6818 88.6885L70.6794 88.689L70.677 88.6894L70.6746 88.6898L70.6722 88.6903L70.6698 88.6907L70.6674 88.6911L70.665 88.6916L70.6626 88.692L70.6601 88.6924L70.6577 88.6929L70.6553 88.6933L70.6529 88.6937L70.6505 88.6942L70.648 88.6946L70.6456 88.695L70.6432 88.6955L70.6408 88.6959L70.6384 88.6964L70.6359 88.6968L70.6335 88.6972L70.6311 88.6977L70.6287 88.6981L70.6262 88.6985L70.6238 88.699L70.6214 88.6994L70.6189 88.6998L70.6165 88.7003L70.6141 88.7007L70.6116 88.7012L70.6092 88.7016L70.6068 88.702L70.6043 88.7025L70.6019 88.7029L70.5994 88.7033L70.597 88.7038L70.5946 88.7042L70.5921 88.7047L70.5897 88.7051L70.5872 88.7055L70.5848 88.706L70.5823 88.7064L70.5799 88.7069L70.5774 88.7073L70.575 88.7077L70.5725 88.7082L70.5701 88.7086L70.5676 88.7091L70.5652 88.7095L70.5627 88.7099L70.5603 88.7104L70.5578 88.7108L70.5554 88.7113L70.5529 88.7117L70.5505 88.7121L70.548 88.7126L70.5455 88.713L70.5431 88.7135L70.5406 88.7139L70.5381 88.7144L70.5357 88.7148L70.5332 88.7152L70.5307 88.7157L70.5283 88.7161L70.5258 88.7166L70.5233 88.717L70.5209 88.7175L70.5184 88.7179L70.5159 88.7183L70.5134 88.7188L70.511 88.7192L70.5085 88.7197L70.506 88.7201L70.5035 88.7206L70.5011 88.721L70.4986 88.7215L70.4961 88.7219L70.4936 88.7224L70.4911 88.7228L70.4887 88.7232L70.4862 88.7237L70.4837 88.7241L70.4812 88.7246L70.4787 88.725L70.4762 88.7255L70.4737 88.7259L70.4712 88.7264L70.4687 88.7268L70.4663 88.7273L70.4638 88.7277L70.4613 88.7282L70.4588 88.7286L70.4563 88.7291L70.4538 88.7295L70.4513 88.73L70.4488 88.7304L70.4463 88.7309L70.4438 88.7313L70.4413 88.7318L70.4388 88.7322L70.4363 88.7327L70.4338 88.7331L70.4312 88.7336L70.4287 88.734L70.4262 88.7345L70.4237 88.7349L70.4212 88.7354L70.4187 88.7358L70.4162 88.7363L70.4137 88.7367L70.4111 88.7372L70.4086 88.7376L70.4061 88.7381L70.4036 88.7385L70.4011 88.739L70.3986 88.7394L70.396 88.7399L70.3935 88.7403L70.391 88.7408L70.3885 88.7412L70.3859 88.7417L70.3834 88.7421L70.3809 88.7426L70.3784 88.7431L70.3758 88.7435L70.3733 88.744L70.3708 88.7444L70.3682 88.7449L70.3657 88.7453L70.3632 88.7458L70.3606 88.7462L70.3581 88.7467L70.3556 88.7472L70.353 88.7476L70.3505 88.7481L70.3479 88.7485L70.3454 88.749L70.3428 88.7494L70.3403 88.7499L70.3378 88.7503L70.3352 88.7508L70.3327 88.7513L70.3301 88.7517L70.3276 88.7522L70.325 88.7526L70.3225 88.7531L70.3199 88.7536L70.3174 88.754L70.3148 88.7545L70.3122 88.7549L70.3097 88.7554L70.3071 88.7559L70.3046 88.7563L70.302 88.7568L70.2995 88.7572L70.2969 88.7577L70.2943 88.7582L70.2918 88.7586L70.2892 88.7591L70.2866 88.7595L70.2841 88.76L70.2815 88.7605L70.2789 88.7609L70.2764 88.7614L70.2738 88.7618L70.2712 88.7623L70.2686 88.7628L70.2661 88.7632L70.2635 88.7637L70.2609 88.7642L70.2583 88.7646L70.2558 88.7651L70.2532 88.7655L70.2506 88.766L70.248 88.7665L70.2454 88.7669L70.2428 88.7674L70.2403 88.7679L70.2377 88.7683L70.2351 88.7688L70.2325 88.7693L70.2299 88.7697L70.2273 88.7702L70.2247 88.7707L70.2221 88.7711L70.2195 88.7716L70.217 88.7721L70.2144 88.7725L70.2118 88.773L70.2092 88.7734L70.2066 88.7739L70.204 88.7744L70.2014 88.7749L70.1988 88.7753L70.1962 88.7758L70.1936 88.7763L70.1909 88.7767L70.1883 88.7772L70.1857 88.7777L70.1831 88.7781L70.1805 88.7786L70.1779 88.7791L70.1753 88.7795L70.1727 88.78L70.1701 88.7805L70.1674 88.7809L70.1648 88.7814L70.1622 88.7819L70.1596 88.7824L70.157 88.7828L70.1544 88.7833L70.1517 88.7838L70.1491 88.7842L70.1465 88.7847L70.1439 88.7852L70.1412 88.7857L70.1386 88.7861L70.136 88.7866L70.1334 88.7871L70.1307 88.7875L70.1281 88.788L70.1255 88.7885L70.1228 88.789L70.1202 88.7894L70.1176 88.7899L70.1149 88.7904L70.1123 88.7909L70.1096 88.7913L70.107 88.7918L70.1044 88.7923L70.1017 88.7927L70.0991 88.7932L70.0964 88.7937L70.0938 88.7942L70.0911 88.7947L70.0885 88.7951L70.0858 88.7956L70.0832 88.7961L70.0805 88.7966L70.0779 88.797L70.0752 88.7975L70.0726 88.798L70.0699 88.7985L70.0673 88.7989L70.0646 88.7994L70.062 88.7999L70.0593 88.8004L70.0566 88.8008L70.054 88.8013L70.0513 88.8018L70.0486 88.8023L70.046 88.8028L70.0433 88.8032L70.0406 88.8037L70.038 88.8042L70.0353 88.8047L70.0326 88.8052L70.03 88.8056L70.0273 88.8061L70.0246 88.8066L70.0219 88.8071L70.0193 88.8076L70.0166 88.808L70.0139 88.8085L70.0112 88.809L70.0085 88.8095L70.0059 88.81L70.0032 88.8104L70.0005 88.8109L69.9978 88.8114L69.9951 88.8119L69.9924 88.8124L69.9897 88.8129L69.9871 88.8133L69.9844 88.8138L69.9817 88.8143L69.979 88.8148L69.9763 88.8153L69.9736 88.8158L69.9709 88.8162L69.9682 88.8167L69.9655 88.8172L69.9628 88.8177L69.9601 88.8182L69.9574 88.8187L69.9547 88.8192L69.952 88.8196L69.9493 88.8201L69.9466 88.8206L69.9439 88.8211L69.9412 88.8216L69.9385 88.8221L69.9357 88.8226L69.933 88.8231L69.9303 88.8235L69.9276 88.824L69.9249 88.8245L69.9222 88.825L69.9194 88.8255L69.9167 88.826L69.914 88.8265L69.9113 88.827L69.9086 88.8274L69.9058 88.8279L69.9031 88.8284L69.9004 88.8289L69.8977 88.8294L69.8949 88.8299L69.8922 88.8304L69.8895 88.8309L69.8867 88.8314L69.884 88.8319L69.8813 88.8323L69.8785 88.8328L69.8758 88.8333L69.8731 88.8338L69.8703 88.8343L69.8676 88.8348L69.8649 88.8353L69.8621 88.8358L69.8594 88.8363L69.8566 88.8368L69.8539 88.8373L69.8511 88.8378L69.8484 88.8383L69.8456 88.8388L69.8429 88.8392L69.8401 88.8397L69.8374 88.8402L69.8346 88.8407L69.8319 88.8412L69.8291 88.8417L69.8264 88.8422L69.8236 88.8427L69.8208 88.8432L69.8181 88.8437L69.8153 88.8442L69.8126 88.8447L69.8098 88.8452L69.807 88.8457L69.8043 88.8462L69.8015 88.8467L69.7987 88.8472L69.796 88.8477L69.7932 88.8482L69.7904 88.8487L69.7876 88.8492L69.7849 88.8497L69.7821 88.8502L69.7793 88.8507L69.7765 88.8512L69.7738 88.8517L69.771 88.8522L69.7682 88.8527L69.7654 88.8532L69.7626 88.8537L69.7598 88.8542L69.7571 88.8547L69.7543 88.8552L69.7515 88.8557L69.7487 88.8562L69.7459 88.8567L69.7431 88.8572L69.7403 88.8577L69.7375 88.8582L69.7347 88.8587L69.7319 88.8592L69.7291 88.8597L69.7263 88.8602L69.7235 88.8607L69.7207 88.8612L69.7179 88.8617L69.7151 88.8622L69.7123 88.8627L69.7095 88.8632L69.7067 88.8637L69.7039 88.8642L69.7011 88.8647L69.6983 88.8652L69.6955 88.8657L69.6927 88.8662L69.6898 88.8667L69.687 88.8672L69.6842 88.8677L69.6814 88.8683L69.6786 88.8688L69.6758 88.8693L69.6729 88.8698L69.6701 88.8703L69.6673 88.8708L69.6645 88.8713L69.6616 88.8718L69.6588 88.8723L69.656 88.8728L69.6532 88.8733L69.6503 88.8738L69.6475 88.8743L69.6447 88.8749L69.6418 88.8754L69.639 88.8759L69.6362 88.8764L69.6333 88.8769L69.6305 88.8774L69.6276 88.8779L69.6248 88.8784L69.622 88.8789L69.6191 88.8794L69.6163 88.88L69.6134 88.8805L69.6106 88.881L69.6077 88.8815L69.6049 88.882L69.602 88.8825L69.5992 88.883L69.5963 88.8835L69.5935 88.884L69.5906 88.8846L69.5877 88.8851L69.5849 88.8856L69.582 88.8861L69.5792 88.8866L69.5763 88.8871L69.5734 88.8876L69.5706 88.8882L69.5677 88.8887L69.5648 88.8892L69.562 88.8897L69.5591 88.8902L69.5562 88.8907L69.5534 88.8913L69.5505 88.8918L69.5476 88.8923L69.5447 88.8928L69.5419 88.8933L69.539 88.8938L69.5361 88.8944L69.5332 88.8949L69.5304 88.8954L69.5275 88.8959L69.5246 88.8964L69.5217 88.8969L68.7896 89.0284L68.0177 89.1671L68.0008 89.1701L67.984 89.1738C67.5858 89.2595 67.1971 89.384 66.8232 89.5457L66.8232 89.5456L66.8177 89.5481C66.3352 89.7601 65.8919 90.0519 65.5063 90.4111L65.5009 90.4162L65.4955 90.4213C65.3639 90.5476 65.1789 90.7373 64.9468 90.984L64.1068 90.2759C64.4221 89.7584 64.6779 89.2059 64.8688 88.6288Z" fill="black" stroke="black" stroke-width="2"/>
</svg>
